<svg width="20" height="20" viewBox="0 0 20 20" fill="none" xmlns="http://www.w3.org/2000/svg">
<path d="M9.9999 3.8291C9.0919 2.99418 7.90341 2.5308 6.6699 2.53076C6.01702 2.53144 5.37071 2.66123 4.76818 2.91265C4.16565 3.16408 3.61879 3.53217 3.15907 3.99576C1.19824 5.96493 1.19907 9.04493 3.16074 11.0058L9.27074 17.1158C9.4124 17.3649 9.68574 17.5258 9.9999 17.5258C10.1289 17.5245 10.2558 17.493 10.3704 17.4338C10.4851 17.3746 10.5842 17.2894 10.6599 17.1849L16.8391 11.0058C18.8007 9.0441 18.8007 5.96493 16.8374 3.99243C16.3779 3.52969 15.8315 3.16234 15.2295 2.9115C14.6276 2.66065 13.982 2.53126 13.3299 2.53076C12.0964 2.53096 10.908 2.99432 9.9999 3.8291ZM15.6591 5.17076C16.9616 6.47993 16.9624 8.52493 15.6607 9.82743L9.9999 15.4883L4.33907 9.82743C3.0374 8.52493 3.03824 6.47993 4.3374 5.1741C4.97074 4.5441 5.79907 4.19743 6.6699 4.19743C7.54074 4.19743 8.36574 4.5441 8.99407 5.17243L9.41074 5.5891C9.48806 5.66655 9.5799 5.728 9.68099 5.76992C9.78209 5.81185 9.89046 5.83343 9.9999 5.83343C10.1093 5.83343 10.2177 5.81185 10.3188 5.76992C10.4199 5.728 10.5117 5.66655 10.5891 5.5891L11.0057 5.17243C12.2657 3.91493 14.4007 3.91826 15.6591 5.17076Z" fill="white"/>
</svg>
