<svg width="17" height="17" viewBox="0 0 17 17" fill="none" xmlns="http://www.w3.org/2000/svg">
<path d="M15.3537 9.20418C14.789 9.35416 14.2072 9.43008 13.6229 9.43001C11.8437 9.43001 10.1729 8.73834 8.91792 7.48334C8.09379 6.65447 7.5013 5.62406 7.19951 4.49484C6.89773 3.36562 6.89717 2.17701 7.19792 1.04751C7.23547 0.906288 7.23523 0.757672 7.19722 0.61657C7.15921 0.475468 7.08476 0.346843 6.98135 0.243597C6.87793 0.14035 6.74919 0.066113 6.60802 0.0283324C6.46686 -0.00944825 6.31824 -0.00944406 6.17708 0.0283445C4.76305 0.405164 3.47297 1.1472 2.43625 2.18001C-0.812083 5.42835 -0.812083 10.7158 2.43625 13.9658C3.20836 14.7423 4.12678 15.3578 5.13837 15.7769C6.14995 16.196 7.23461 16.4104 8.32958 16.4075C9.42426 16.4106 10.5087 16.1964 11.52 15.7775C12.5313 15.3585 13.4495 14.743 14.2212 13.9667C15.2548 12.9298 15.9972 11.639 16.3737 10.2242C16.4112 10.083 16.4108 9.93451 16.3729 9.7935C16.3349 9.6525 16.2605 9.52393 16.1573 9.42067C16.054 9.31741 15.9254 9.24307 15.7844 9.20507C15.6434 9.16708 15.4949 9.16677 15.3537 9.20418ZM13.0437 12.7883C12.4262 13.4093 11.6917 13.9015 10.8826 14.2367C10.0736 14.5718 9.20612 14.7432 8.33042 14.7408C7.45441 14.743 6.58666 14.5715 5.77735 14.2362C4.96805 13.901 4.23324 13.4086 3.61542 12.7875C1.01708 10.1883 1.01708 5.95834 3.61542 3.35918C4.1175 2.85765 4.69716 2.44036 5.33208 2.12334C5.23915 3.32256 5.40621 4.5277 5.82185 5.65642C6.2375 6.78513 6.89193 7.81081 7.74042 8.66334C8.59108 9.51449 9.61646 10.1707 10.7456 10.5867C11.8748 11.0027 13.0809 11.1684 14.2804 11.0725C13.9617 11.7064 13.5443 12.2855 13.0437 12.7883Z" fill="#F3F2F2"/>
</svg>
